<svg xmlns="http://www.w3.org/2000/svg" width="884" height="805"><g fill="none" fill-opacity="0" fill-rule="evenodd" stroke="#FFF" stroke-width="1.5"><path d="M242 321l-80-53.53v-80L242 241zm0 0l80-53.53v-80L242 241zm-80-133.53l80-53.531 80 53.531L242 241z"/><path d="M322 268l-80-53.53v-80L322 188zm0 0l80-53.53v-80L322 188z"/><path d="M242 134.47l80-53.531 80 53.531L322 188z"/><path d="M402 321l-80-53.53v-80L402 241zm0 0l80-53.53v-80L402 241zm-80-133.53l80-53.531 80 53.531L402 241z"/><path d="M482 188l-80-53.53v-80L482 108zm0 0l80-53.53v-80L482 108z"/><path d="M402 54.47L482 .939l80 53.531L482 108zM562 402l-80-53.53v-80L562 322zm0 0l80-53.53v-80L562 322z"/><path d="M482 268.47l80-53.531 80 53.531L562 322zM722 402l-80-53.53v-80L722 322zm0 0l80-53.53v-80L722 322z"/><path d="M642 268.47l80-53.531 80 53.531L722 322zM482 536l-80-53.53v-80L482 456zm0 0l80-53.53v-80L482 456z"/><path d="M402 402.47l80-53.531 80 53.531L482 456zM802 268l-80-53.53v-80L802 188zm0 0l80-53.53v-80L802 188z"/><path d="M722 134.47l80-53.531 80 53.531L802 188zM82 588L2 534.47v-80L82 508zm0 0l80-53.53v-80L82 508z"/><path d="M2 454.47l80-53.531 80 53.531L82 508z"/><path d="M162 535l-80-53.53v-80L162 455zm0 0l80-53.53v-80L162 455z"/><path d="M82 401.47l80-53.531 80 53.531L162 455z"/><path d="M242 588l-80-53.53v-80L242 508zm0 0l80-53.53v-80L242 508z"/><path d="M162 454.47l80-53.531 80 53.531L242 508z"/><path d="M322 455l-80-53.53v-80L322 375zm0 0l80-53.53v-80L322 375z"/><path d="M242 321.47l80-53.531 80 53.531L322 375zM402 669l-80-53.53v-80L402 589zm0 0l80-53.53v-80L402 589z"/><path d="M322 535.47l80-53.531 80 53.531L402 589zM562 669l-80-53.53v-80L562 589zm0 0l80-53.53v-80L562 589z"/><path d="M482 535.47l80-53.531 80 53.531L562 589zM322 803l-80-53.53v-80L322 723zm0 0l80-53.53v-80L322 723z"/><path d="M242 669.47l80-53.531 80 53.531L322 723zM642 535l-80-53.53v-80L642 455zm0 0l80-53.53v-80L642 455z"/><path d="M562 401.47l80-53.531 80 53.531L642 455z"/></g></svg>